<svg xmlns="http://www.w3.org/2000/svg" width="104.000000pt" height="104.000000pt" viewBox="0 0 104.000000 104.000000">
<g transform="translate(0.000000,104.000000) scale(0.100000,-0.100000)"
stroke="none">
<path d="M495 850 c-3 -5 7 -8 24 -7 16 1 27 5 24 10 -6 10 -41 9 -48 -3z"/>
<path d="M393 792 c-6 -4 -16 -19 -22 -33 l-10 -26 39 11 c49 14 56 22 40 41
-14 16 -29 19 -47 7z"/>
<path d="M302 614 c-13 -25 -21 -48 -19 -50 6 -6 67 41 67 52 0 5 -6 18 -13
28 -11 15 -15 12 -35 -30z"/>
<path d="M302 546 l-34 -25 128 -85 c126 -84 128 -85 149 -67 11 10 44 33 74
51 44 27 50 35 37 42 -13 7 -26 3 -51 -16 -50 -38 -61 -34 -85 32 l-21 58 -62
12 c-34 6 -71 14 -82 17 -12 4 -33 -3 -53 -19z"/>
<path d="M290 469 c0 -5 5 -20 11 -31 9 -17 13 -18 20 -7 12 20 11 23 -11 37
-13 8 -20 9 -20 1z"/>
<path d="M632 404 l-113 -74 -29 20 c-39 28 -58 25 -96 -15 -44 -47 -34 -68
57 -123 l69 -41 71 42 71 42 42 95 c53 119 57 130 48 129 -4 0 -58 -34 -120
-75z"/>
</g>
</svg>
