<svg xmlns="http://www.w3.org/2000/svg" width="20" height="20" fill="none">
<path d="m7.354 10 1.23-1.23a.8.8 0 0 0 .25-.582.8.8 0 0 0-.25-.584.812.812 0 0 0-.595-.25.809.809 0 0 0-.593.25L5.584 9.417a.736.736 0 0 0-.178.27.902.902 0 0 0-.052.313c0 .111.018.215.052.313a.722.722 0 0 0 .178.27l1.812 1.813c.167.166.365.25.594.25.23 0 .427-.084.594-.25a.8.8 0 0 0 .25-.584.8.8 0 0 0-.25-.583L7.354 10Zm5.292 0-1.23 1.23a.8.8 0 0 0-.25.582.8.8 0 0 0 .25.584c.168.166.366.25.595.25.23 0 .427-.084.593-.25l1.813-1.813a.736.736 0 0 0 .177-.27.903.903 0 0 0 .052-.313.916.916 0 0 0-.052-.313.74.74 0 0 0-.177-.27l-1.813-1.813a.838.838 0 0 0-.594-.25.839.839 0 0 0-.593.25.8.8 0 0 0-.25.583.8.8 0 0 0 .25.584L12.647 10Zm-8.48 7.5c-.457 0-.85-.163-1.177-.49a1.602 1.602 0 0 1-.489-1.177V4.167c0-.459.164-.851.49-1.178.327-.326.72-.49 1.177-.489h11.667c.458 0 .85.163 1.177.49.327.327.49.719.49 1.177v11.666c0 .459-.164.851-.49 1.178-.327.326-.72.49-1.177.489H4.167Z" fill="currentColor"/>
</svg>
