<svg xmlns="http://www.w3.org/2000/svg" width="22" height="22" fill="none" stroke="currentColor">
<g clip-path="url(#a)" fill="currentColor"><path d="M13.532 10.621a5.04 5.04 0 0 1-1.615.583v10.68a4.51 4.51 0 0 0 1.375-.51l5.524-3.19a4.599 4.599 0 0 0 2.292-3.97v-6.38a4.544 4.544 0 0 0-.243-1.438l-7.333 4.225ZM9.388 9.035a3.237 3.237 0 0 0 3.228 0l7.333-4.225a4.567 4.567 0 0 0-1.135-.942L13.291.675a4.597 4.597 0 0 0-4.583 0l-5.525 3.19a4.56 4.56 0 0 0-1.1.901l7.305 4.27ZM10.083 11.204a5.034 5.034 0 0 1-1.616-.583L1.152 6.346c-.17.478-.257.982-.26 1.489v6.38a4.598 4.598 0 0 0 2.291 3.97l5.525 3.189a4.51 4.51 0 0 0 1.375.51v-10.68Z"/></g><defs><clipPath id="a"><path fill="#fff" d="M0 0h22v22H0z"/></clipPath></defs>
</svg>