<svg width="24" height="24" viewBox="0 0 24 24" fill="none" xmlns="http://www.w3.org/2000/svg">
<path d="M3.75 19.5H20.25C20.4489 19.5 20.6397 19.579 20.7803 19.7197C20.921 19.8603 21 20.0511 21 20.25C21 20.4489 20.921 20.6397 20.7803 20.7803C20.6397 20.921 20.4489 21 20.25 21H3.75C3.55109 21 3.36032 20.921 3.21967 20.7803C3.07902 20.6397 3 20.4489 3 20.25C3 20.0511 3.07902 19.8603 3.21967 19.7197C3.36032 19.579 3.55109 19.5 3.75 19.5ZM12.75 13.554L18.288 8.0145L19.3485 9.075L11.925 16.5L4.5 9.075L5.5605 8.0145L11.25 13.704V3H12.75V13.554Z" fill="currentColor"/>
</svg>
