<svg width="22" height="22" viewBox="0 0 22 22" fill="none" xmlns="http://www.w3.org/2000/svg">
  <path d="M8.02902 1.83252H11.5985C13.2155 1.83252 14.497 1.83252 15.4989 1.96819C16.5311 2.10752 17.3662 2.40085 18.0244 3.06177C18.6834 3.72269 18.9759 4.56144 19.1143 5.59727C19.249 6.60377 19.249 7.88985 19.249 9.51327V14.8648C19.249 16.2471 18.4057 17.4314 17.2076 17.9283C17.269 17.0941 17.269 15.9254 17.269 14.9519V10.3594C17.269 9.1851 17.269 8.17219 17.1609 7.36185C17.0444 6.49285 16.7823 5.66052 16.1094 4.98494C15.4366 4.30935 14.607 4.04627 13.7417 3.92894C12.935 3.82077 11.9267 3.82077 10.7561 3.82077H7.94194C6.77227 3.82077 5.76577 3.82077 4.95819 3.92894C5.2002 3.31144 5.6226 2.78117 6.17035 2.40723C6.71811 2.03329 7.3658 1.83302 8.02902 1.83252Z" fill="currentColor"/>
  <path d="M15.9492 10.4466C15.9492 7.94776 15.9492 6.69834 15.1756 5.92192C14.4028 5.14551 13.1589 5.14551 10.6692 5.14551H8.02922C5.54047 5.14551 4.29564 5.14551 3.52197 5.92192C2.74922 6.69834 2.74922 7.94776 2.74922 10.4466V14.8649C2.74922 17.3638 2.74922 18.6132 3.52197 19.3896C4.29564 20.166 5.54047 20.166 8.02922 20.166H10.6692C13.158 20.166 14.4028 20.166 15.1756 19.3896C15.9492 18.6132 15.9492 17.3638 15.9492 14.8649V10.4466Z" fill="currentColor"/>
</svg>
