<svg width="22" height="22" viewBox="0 0 22 22" fill="none" xmlns="http://www.w3.org/2000/svg">
<path d="M6.41634 13.2917H15.583M5.49967 9.16667H5.50884M9.16634 9.16667H9.17551M12.833 9.16667H12.8422M16.4997 9.16667H16.5088M4.76634 16.5H17.233C18.2598 16.5 18.7732 16.5 19.1653 16.3002C19.5103 16.1244 19.7908 15.8439 19.9665 15.499C20.1663 15.1068 20.1663 14.5934 20.1663 13.5667V8.43333C20.1663 7.40657 20.1663 6.89319 19.9665 6.50102C19.7908 6.15605 19.5103 5.87559 19.1653 5.69982C18.7732 5.5 18.2598 5.5 17.233 5.5H4.76634C3.73958 5.5 3.2262 5.5 2.83403 5.69982C2.48906 5.87559 2.2086 6.15605 2.03283 6.50102C1.83301 6.89319 1.83301 7.40657 1.83301 8.43333V13.5667C1.83301 14.5934 1.83301 15.1068 2.03283 15.499C2.2086 15.8439 2.48906 16.1244 2.83403 16.3002C3.2262 16.5 3.73958 16.5 4.76634 16.5Z" stroke="currentColor" stroke-width="1.83333" stroke-linecap="round" stroke-linejoin="round"/>
</svg>
