<svg xmlns="http://www.w3.org/2000/svg" width="20" height="20" fill="none">
<path d="M10 10c.458 0 .85-.163 1.177-.49.327-.326.49-.719.49-1.176 0-.459-.164-.851-.49-1.178A1.602 1.602 0 0 0 10 6.667c-.458 0-.85.163-1.178.49-.326.327-.49.719-.489 1.177 0 .458.164.85.49 1.177.327.327.72.49 1.177.49Zm0 8.021a1 1 0 0 1-.625-.23c-2.028-1.79-3.542-3.454-4.542-4.989-1-1.535-1.5-2.969-1.5-4.302 0-2.083.67-3.743 2.011-4.979C6.684 2.285 8.237 1.667 10 1.667c1.764 0 3.316.618 4.657 1.854 1.34 1.236 2.01 2.896 2.01 4.98 0 1.333-.5 2.767-1.5 4.302-1 1.535-2.514 3.198-4.542 4.989a1 1 0 0 1-.625.23Z" fill="currentColor"/>
</svg>