<svg width="22" height="22" viewBox="0 0 22 22" fill="none" xmlns="http://www.w3.org/2000/svg">
  <path d="M11.0007 17.4163C10.7409 17.4163 10.5231 17.3283 10.3471 17.1523C10.1711 16.9763 10.0834 16.7588 10.084 16.4997V11.9163H5.50065C5.24093 11.9163 5.02307 11.8283 4.84707 11.6523C4.67107 11.4763 4.58338 11.2588 4.58399 10.9997C4.58399 10.74 4.67199 10.5221 4.84799 10.3461C5.02399 10.1701 5.24154 10.0824 5.50065 10.083H10.084V5.49968C10.084 5.23996 10.172 5.02209 10.348 4.84609C10.524 4.67009 10.7415 4.5824 11.0007 4.58301C11.2604 4.58301 11.4782 4.67101 11.6542 4.84701C11.8302 5.02301 11.9179 5.24057 11.9173 5.49968V10.083H16.5007C16.7604 10.083 16.9782 10.171 17.1542 10.347C17.3302 10.523 17.4179 10.7406 17.4173 10.9997C17.4173 11.2594 17.3293 11.4773 17.1533 11.6533C16.9773 11.8293 16.7598 11.917 16.5007 11.9163H11.9173V16.4997C11.9173 16.7594 11.8293 16.9773 11.6533 17.1533C11.4773 17.3293 11.2598 17.417 11.0007 17.4163Z" fill="currentColor"/>
</svg>
