<svg viewBox="0 0 16 16" fill="currentColor" xmlns="http://www.w3.org/2000/svg">
  <path d="M13.76 8.0001C14.1134 8.0001 14.4033 8.28735 14.368 8.63905C14.2764 9.55164 13.9897 10.4341 13.5274 11.2262C13.3492 11.5315 12.9459 11.5935 12.6599 11.3857C12.374 11.178 12.3146 10.7793 12.485 10.4696C12.7974 9.9024 12.9993 9.28094 13.08 8.63845C13.1241 8.28775 13.4065 8.0001 13.76 8.0001Z" fill="currentColor"/>
  <path d="M13.2622 10.3429C13.5851 10.4867 13.7331 10.867 13.5578 11.1739C13.1029 11.9704 12.4821 12.6599 11.7375 13.1955C11.4506 13.4019 11.0569 13.2945 10.8802 12.9884C10.7034 12.6823 10.8113 12.2939 11.093 12.0804C11.6091 11.6892 12.0463 11.2036 12.3814 10.6495C12.5643 10.347 12.9393 10.1991 13.2622 10.3429Z" fill="currentColor"/>
  <path d="M11.8544 12.2805C12.0909 12.5432 12.0714 12.9508 11.7864 13.1599C11.0469 13.7025 10.1993 14.0799 9.30127 14.2663C8.95519 14.3382 8.63922 14.08 8.60227 13.7284C8.56532 13.3769 8.82188 13.066 9.16605 12.9855C9.79658 12.838 10.3935 12.5723 10.925 12.2023C11.2151 12.0004 11.6179 12.0178 11.8544 12.2805Z" fill="currentColor"/>
  <path d="M9.78002 13.4781C9.88924 13.8143 9.70562 14.1787 9.36023 14.2538C8.46401 14.4488 7.53615 14.4487 6.63992 14.2538C6.29454 14.1787 6.11091 13.8143 6.22014 13.4781C6.32936 13.1419 6.69021 12.9622 7.03737 13.0287C7.67335 13.1505 8.3268 13.1505 8.96279 13.0287C9.30995 12.9622 9.67079 13.1419 9.78002 13.4781Z" fill="currentColor"/>
  <path d="M7.39805 13.7286C7.3611 14.0801 7.04513 14.3384 6.69905 14.2665C5.80102 14.0801 4.95338 13.7027 4.21392 13.1601C3.92895 12.951 3.90943 12.5433 4.14594 12.2807C4.38246 12.018 4.78519 12.0006 5.07531 12.2025C5.60679 12.5724 6.20374 12.8382 6.83427 12.9857C7.17844 13.0661 7.435 13.3771 7.39805 13.7286Z" fill="currentColor"/>
  <path d="M5.12011 12.9886C4.94338 13.2947 4.54969 13.4021 4.26275 13.1957C3.5182 12.6601 2.89734 11.9706 2.44251 11.1741C2.26723 10.8672 2.41519 10.4868 2.73809 10.3431C3.061 10.1993 3.43599 10.3472 3.6189 10.6497C3.95397 11.2038 4.39121 11.6894 4.90725 12.0806C5.18894 12.2941 5.29685 12.6825 5.12011 12.9886Z" fill="currentColor"/>
  <path d="M3.34011 11.3858C3.05415 11.5935 2.65081 11.5315 2.47263 11.2262C2.0103 10.4341 1.72357 9.55168 1.63201 8.63908C1.59673 8.28738 1.88658 8.00013 2.24004 8.00013C2.59351 8.00013 2.87592 8.28778 2.91999 8.63849C3.00072 9.28097 3.20265 9.90244 3.51498 10.4697C3.68546 10.7793 3.62606 11.178 3.34011 11.3858Z" fill="currentColor"/>
  <path d="M2.36579 9.19775C2.02005 9.27124 1.67681 9.05053 1.6382 8.69918C1.53802 7.78749 1.63501 6.86471 1.92255 5.99377C2.03336 5.65813 2.41499 5.51361 2.7379 5.65737C3.0608 5.80114 3.2018 6.17879 3.09941 6.5171C2.91185 7.13687 2.84354 7.78674 2.89815 8.43197C2.92796 8.78418 2.71153 9.12426 2.36579 9.19775Z" fill="currentColor"/>
  <path d="M2.36568 6.80247C2.01994 6.72898 1.79614 6.38774 1.90378 6.05107C2.18308 5.17745 2.64701 4.3739 3.26394 3.69521C3.50169 3.43366 3.90911 3.45685 4.14562 3.71953C4.38213 3.9822 4.35734 4.38455 4.1262 4.65197C3.70276 5.14187 3.37604 5.70777 3.16349 6.31943C3.04747 6.65331 2.71142 6.87596 2.36568 6.80247Z" fill="currentColor"/>
  <path d="M3.33983 4.61428C3.05387 4.40652 2.98822 4.00375 3.22348 3.73996C3.83397 3.05548 4.58462 2.51009 5.42426 2.14101C5.74784 1.99877 6.1106 2.18567 6.21983 2.52183C6.32905 2.858 6.14275 3.21548 5.82283 3.36576C5.23674 3.64108 4.70809 4.02517 4.26513 4.4975C4.02334 4.75532 3.62579 4.82204 3.33983 4.61428Z" fill="currentColor"/>
  <path d="M5.11979 3.01181C4.94306 2.7057 5.0469 2.31105 5.36912 2.16576C6.20523 1.78876 7.11282 1.59585 8.02998 1.60018C8.38344 1.60185 8.63882 1.92014 8.60187 2.27167C8.56493 2.62319 8.24933 2.87399 7.89594 2.88116C7.24854 2.89429 6.60937 3.03015 6.01259 3.28148C5.68684 3.41867 5.29652 3.31791 5.11979 3.01181Z" fill="currentColor"/>
  <path d="M7.39771 2.27181C7.36076 1.92029 7.61614 1.60199 7.9696 1.60032C8.88676 1.59599 9.79435 1.7889 10.6305 2.16591C10.9527 2.3112 11.0565 2.70584 10.8798 3.01195C10.7031 3.31806 10.3127 3.41881 9.98699 3.28162C9.39021 3.0303 8.75104 2.89444 8.10364 2.8813C7.75025 2.87414 7.43465 2.62334 7.39771 2.27181Z" fill="currentColor"/>
  <path d="M7.39771 2.27181C7.36076 1.92029 7.61614 1.60199 7.9696 1.60032C8.88677 1.59599 9.79435 1.7889 10.6305 2.16591C10.9527 2.3112 11.0565 2.70584 10.8798 3.01195C10.7031 3.31806 10.3127 3.41881 9.98699 3.28162C9.39021 3.0303 8.75104 2.89444 8.10364 2.88131C7.75025 2.87414 7.43465 2.62334 7.39771 2.27181Z" fill="currentColor"/>
  <path d="M7.39783 2.27181C7.36088 1.92029 7.61626 1.60199 7.96972 1.60032C8.88689 1.59599 9.79447 1.7889 10.6306 2.16591C10.9528 2.3112 11.0566 2.70584 10.8799 3.01195C10.7032 3.31806 10.3129 3.41881 9.98711 3.28162C9.39034 3.0303 8.75117 2.89444 8.10376 2.88131C7.75037 2.87414 7.43478 2.62334 7.39783 2.27181Z" fill="currentColor"/>
  <path d="M7.39771 2.27181C7.36076 1.92029 7.61614 1.60199 7.9696 1.60032C8.88676 1.59599 9.79435 1.7889 10.6305 2.16591C10.9527 2.3112 11.0565 2.70584 10.8798 3.01195C10.7031 3.31806 10.3127 3.41881 9.98699 3.28162C9.39021 3.0303 8.75104 2.89444 8.10364 2.8813C7.75025 2.87414 7.43465 2.62334 7.39771 2.27181Z" fill="currentColor"/>
</svg>
