<svg width="100%" height="100%" viewBox="0 0 139 40" fill="none" xmlns="http://www.w3.org/2000/svg" id="dexe-logo">
<mask id="mask0_2204_15358" style="mask-type:luminance" maskUnits="userSpaceOnUse" x="13" y="8" width="113" height="24">
<path d="M125.216 8H13V31.2727H125.216V8Z" fill="currentColor"/>
</mask>
<g mask="url(#mask0_2204_15358)">
<path d="M29.1585 20.5038C29.1527 19.7919 29.4154 19.104 29.8942 18.5776C30.3729 18.0513 31.0323 17.7252 31.7407 17.6646H43.5889L39.7408 20.2312H33.2914C32.8756 20.2329 32.4773 20.399 32.1833 20.6934C31.8894 20.9878 31.7234 21.3866 31.7218 21.803V28.2228L29.1901 31.2711L29.1585 20.5038Z" fill="currentColor"/>
<path d="M28.2632 17.0626C27.6027 17.0784 26.9622 16.8351 26.4784 16.3845L17.9277 8L22.5796 8.9126L27.2379 13.4883C27.5361 13.7813 27.9372 13.9454 28.355 13.9454C28.7728 13.9454 29.1739 13.7813 29.4721 13.4883L34.143 8.91893L38.7823 8L30.4215 16.2387C29.8314 16.7758 29.0606 17.0701 28.2632 17.0626Z" fill="currentColor"/>
<path d="M24.8608 28.216V21.8024C24.8608 21.385 24.6956 20.9846 24.4015 20.6888C24.1073 20.3931 23.7081 20.2261 23.2912 20.2244H16.8355L13 17.6577H24.5887C25.3208 17.6685 26.0236 17.9481 26.5634 18.4436C26.8256 18.6671 27.0378 18.9435 27.1861 19.2547C27.3344 19.566 27.4155 19.905 27.4241 20.2498V31.2706L24.8608 28.216Z" fill="currentColor"/>
<path d="M65.2059 13.8409H51.1992V25.4385H65.2059C65.7404 25.4742 66.2772 25.4011 66.783 25.2236C67.2886 25.046 67.7534 24.7677 68.1489 24.4054C68.4957 24.0166 68.7586 23.5606 68.9221 23.0656C69.0855 22.5707 69.1454 22.0474 69.0982 21.5282V17.8778C69.0982 16.5026 68.788 15.5203 68.1489 14.8739C67.7534 14.5116 67.2886 14.2333 66.783 14.0558C66.2772 13.8782 65.7404 13.8051 65.2059 13.8409ZM53.7439 23.176V16.1034H64.6045C64.8776 16.0842 65.1517 16.1191 65.4114 16.2061C65.6707 16.2931 65.9107 16.4305 66.117 16.6103C66.2964 16.8135 66.4337 17.0503 66.5209 17.3071C66.6076 17.5639 66.6425 17.8355 66.6236 18.106V21.1733C66.6425 21.4438 66.6076 21.7154 66.5209 21.9722C66.4337 22.229 66.2964 22.4659 66.117 22.669C65.9111 22.8495 65.6711 22.9873 65.4114 23.0743C65.1517 23.1613 64.8776 23.1959 64.6045 23.176H53.7439Z" fill="currentColor"/>
<path d="M108.41 13.8394L100.771 19.6065L108.404 25.437H104.562L98.5622 20.855L93.2078 25.437H89.3028L96.4548 19.6065L89.3217 13.8394H93.2078L98.442 18.377L104.493 13.8584L108.41 13.8394Z" fill="currentColor"/>
<path d="M73.7592 17.6171V18.5361H84.9426V20.7415H73.7592V21.6604C73.7454 21.8647 73.7722 22.0697 73.8387 22.2634C73.9052 22.4571 74.009 22.6356 74.1452 22.7885C74.581 23.0491 75.0898 23.1603 75.5946 23.1054H84.8478L88.7529 25.4376H74.6831C74.2226 25.4659 73.7606 25.4007 73.3256 25.2461C72.8909 25.0915 72.4914 24.8505 72.1515 24.5377C71.8453 24.1941 71.6096 23.7932 71.4586 23.3582C71.3079 22.9231 71.2443 22.4624 71.2719 22.0027V17.313C71.2443 16.8532 71.3079 16.3925 71.4586 15.9574C71.6096 15.5224 71.8453 15.1215 72.1515 14.7779C72.4914 14.4651 72.8909 14.2242 73.3256 14.0695C73.7606 13.9149 74.2226 13.8498 74.6831 13.878H88.791L84.9237 16.1912H75.2971C75.0931 16.1771 74.8882 16.204 74.6947 16.2704C74.5011 16.3368 74.3232 16.4413 74.1706 16.5778C74.0323 16.7118 73.9237 16.8738 73.8529 17.053C73.7821 17.2323 73.7501 17.4246 73.7592 17.6171Z" fill="currentColor"/>
<path d="M122.494 23.1054L126.399 25.4376H112.279C111.818 25.4659 111.357 25.4007 110.922 25.2461C110.487 25.0915 110.087 24.8505 109.748 24.5377C109.441 24.1941 109.206 23.7932 109.055 23.3582C108.904 22.9231 108.84 22.4624 108.868 22.0027V17.313C108.84 16.8532 108.904 16.3925 109.055 15.9574C109.206 15.5224 109.441 15.1215 109.748 14.7779C110.087 14.4651 110.487 14.2242 110.922 14.0695C111.357 13.9149 111.818 13.8498 112.279 13.878H126.387L122.494 16.1532H112.868C112.664 16.139 112.459 16.1659 112.265 16.2323C112.072 16.2987 111.893 16.4033 111.741 16.5398C111.605 16.6782 111.5 16.8443 111.433 17.0269C111.366 17.2095 111.34 17.4043 111.355 17.5981V18.5171H122.539V20.7415H111.38V21.6604C111.365 21.8648 111.392 22.0702 111.458 22.2641C111.524 22.458 111.629 22.6364 111.766 22.7885C112.202 23.0491 112.711 23.1603 113.216 23.1054H122.494Z" fill="currentColor"/>
</g>
</svg>
