<svg width="231" height="231" viewBox="0 0 231 231" fill="none" xmlns="http://www.w3.org/2000/svg">
<g clip-path="url(#clip0_911_2103)">
<ellipse cx="116.433" cy="112.897" rx="116.433" ry="112.897" transform="matrix(-0.584328 -0.811517 -0.811517 0.584328 275.306 143.975)" fill="url(#paint0_radial_911_2103)"/>
<g opacity="0.15" clip-path="url(#clip1_911_2103)">
<path d="M153 125.6C153 125.6 141.576 123.903 135.539 123.416C129.742 122.949 122.873 122.679 115.503 122.679C108.133 122.679 101.263 122.949 95.468 123.416C89.4298 123.909 78.0078 126.264 78.0078 126.264V129.224C78.0078 131.855 94.7956 133.993 115.503 133.993C136.21 133.993 152.998 131.855 152.998 129.224L153 125.6Z" fill="white" fill-opacity="0.4"/>
<path d="M103.975 86.3375C90.2827 91.2296 81.1395 104.229 81.1387 118.805V123.685C86.0246 122.515 91.0063 121.791 96.0226 121.521C95.9887 120.585 95.9712 119.642 95.9701 118.691C95.975 105.884 99.058 94.3593 103.975 86.3375Z" fill="white" fill-opacity="0.4"/>
<path d="M149.866 118.805C149.878 110.807 147.104 103.056 142.022 96.8918C144.225 103.947 145.323 111.302 145.276 118.694C145.276 120.04 145.242 121.369 145.173 122.684C146.736 122.925 148.285 123.255 149.812 123.671L149.866 118.805Z" fill="white" fill-opacity="0.8"/>
<path d="M149.866 118.805C149.878 110.807 147.104 103.056 142.022 96.8918C144.225 103.947 145.323 111.302 145.276 118.694C145.276 120.04 145.242 121.369 145.173 122.684C146.736 122.925 148.285 123.255 149.812 123.671L149.866 118.805Z" fill="white" fill-opacity="0.8"/>
<path d="M142.023 96.8902C132.816 85.6988 117.61 81.4811 103.977 86.3375C99.057 94.3593 95.9756 105.884 95.9756 118.693C95.9756 119.643 95.9931 120.587 96.0281 121.523C101.145 121.127 107.068 120.882 113.411 120.837C113.411 120.837 114.853 120.837 115.507 120.837C125.429 120.718 135.346 121.337 145.176 122.691C145.243 121.375 145.277 120.045 145.28 118.701C145.326 111.306 144.228 103.948 142.023 96.8902Z" fill="white" fill-opacity="0.8"/>
<path fill-rule="evenodd" clip-rule="evenodd" d="M127.295 86.4428L127.148 85.5202C126.993 84.516 126.276 83.6909 125.304 83.4005C118.959 81.5332 112.212 81.5332 105.867 83.4005C104.896 83.6914 104.179 84.5164 104.025 85.5202L103.865 86.5203C103.902 86.4593 103.939 86.3984 103.977 86.3378C111.704 83.5852 119.936 83.7477 127.295 86.4428Z" fill="white" fill-opacity="0.8"/>
<path d="M115.507 120.548C114.851 120.548 114.2 120.548 113.553 120.548H113.481H113.409C93.676 120.686 78.0099 122.765 78.0099 125.309V128.996C77.9779 129.212 78.0239 129.432 78.1395 129.617C79.1417 128.862 80.2937 128.332 81.5177 128.062C84.6351 127.301 87.8036 126.769 90.998 126.47C92.8123 126.27 94.6244 126.863 95.9719 128.098C98.4391 130.363 101.663 131.619 105.008 131.619H125.999C129.344 131.619 132.567 130.363 135.035 128.098C136.382 126.862 138.195 126.268 140.01 126.468C143.204 126.767 146.372 127.299 149.489 128.06C150.648 128.283 151.743 128.764 152.693 129.466C152.747 129.52 152.81 129.568 152.857 129.617C152.974 129.431 153.02 129.21 152.989 128.992V125.305C153 122.682 136.212 120.548 115.507 120.548Z" fill="white" fill-opacity="0.8"/>
<path d="M123.405 109.599L115.497 114.48V120.819L123.405 109.599Z" fill="#6E6F70" fill-opacity="0.8"/>
<path d="M115.505 120.819V114.48L107.598 109.599L115.505 120.819Z" fill="#0A0A0A" fill-opacity="0.8"/>
<path d="M107.598 106.703L115.505 111.288V93.8776L107.598 106.703Z" fill="#0A0A0A" fill-opacity="0.8"/>
<path d="M123.405 106.703L115.497 93.8759V102.116V111.286L123.405 106.701V106.703Z" fill="#6E6F70" fill-opacity="0.8"/>
</g>
</g>
<defs>
<radialGradient id="paint0_radial_911_2103" cx="0" cy="0" r="1" gradientUnits="userSpaceOnUse" gradientTransform="translate(51.2791 111.897) rotate(2.01794) scale(178.034 182.417)">
<stop offset="0.412964" stop-color="#0E0C11"/>
<stop offset="0.601387" stop-color="#0B0C10"/>
<stop offset="1" stop-color="#5A16B2"/>
</radialGradient>
<clipPath id="clip0_911_2103">
<rect width="231" height="231" fill="white"/>
</clipPath>
<clipPath id="clip1_911_2103">
<rect width="75" height="52" fill="white" transform="translate(78 82)"/>
</clipPath>
</defs>
</svg>
