<svg width="100%" height="100%" viewBox="0 0 41 40" fill="none" xmlns="http://www.w3.org/2000/svg" id="q-logo">
<g clip-path="url(#clip0_2204_13159)">
<path fill-rule="evenodd" clip-rule="evenodd" d="M30.6999 29.4601C30.8578 29.2651 31.0088 29.0661 31.1556 28.8656L33.9256 30.5303H37.8037L32.211 27.1723C32.5773 26.4868 32.8845 25.7721 33.1293 25.0359C33.6446 23.5192 33.9125 21.9316 33.9229 20.3323C33.9148 18.7254 33.6402 17.1307 33.1099 15.6109C32.5608 14.0122 31.73 12.5211 30.6556 11.2059C29.5292 9.83024 28.1055 8.71897 26.4881 7.95288C24.803 7.13486 22.8017 6.72584 20.4841 6.72584C18.268 6.72584 16.3355 7.13486 14.6864 7.95288C13.0933 8.72582 11.6891 9.82905 10.5701 11.1868C9.49138 12.4963 8.66651 13.99 8.13665 15.5932C7.61957 17.1217 7.35217 18.7213 7.34442 20.3323C7.34688 21.9713 7.59994 23.6006 8.0951 25.1654C8.59092 26.7672 9.38978 28.2622 10.4496 29.5719C11.5707 30.9368 13.0001 32.025 14.6241 32.7499C16.3396 33.547 18.3936 33.9456 20.786 33.9456C23.027 33.9456 24.966 33.5365 26.6031 32.7185C26.8441 32.5985 27.0767 32.4704 27.3066 32.3382L30.049 33.9851H33.927L29.1002 31.0825C29.685 30.5934 30.2207 30.0501 30.6999 29.4601ZM22.5754 27.1628H18.6974L24.93 30.9012C24.8593 30.9489 24.7915 30.9966 24.7194 31.0375C23.6022 31.7464 22.2777 32.1005 20.7458 32.0996C19.1115 32.0996 17.7094 31.7564 16.5395 31.0702C15.375 30.3952 14.393 29.4538 13.6767 28.3257C12.9328 27.1476 12.3883 25.8584 12.0646 24.5083C11.7235 23.1403 11.5505 21.7368 11.5493 20.3282C11.5535 18.9443 11.735 17.5664 12.0895 16.2272C12.4344 14.876 12.9954 13.5874 13.7515 12.4097C14.4675 11.2844 15.4277 10.329 16.5631 9.6121C17.6905 8.90497 19.0109 8.55094 20.5242 8.55004C22.1068 8.55004 23.4743 8.90406 24.6266 9.6121C25.7872 10.3252 26.7654 11.2918 27.4853 12.437C28.2391 13.6178 28.8047 14.9052 29.1626 16.2544C29.528 17.5881 29.7142 18.9632 29.7166 20.3446C29.71 21.714 29.5285 23.0771 29.1764 24.402C29.1044 24.6746 29.0241 24.9405 28.9382 25.205L26.4562 23.7203H22.5782L28.1709 27.0783C27.9725 27.4746 27.7534 27.8605 27.5144 28.2344C27.2199 28.6949 26.8863 29.13 26.5172 29.5351L22.5754 27.1628Z" fill="currentColor"/>
</g>
<defs>
<clipPath id="clip0_2204_13159">
<rect width="40" height="40" fill="currentColor" transform="translate(0.5)"/>
</clipPath>
</defs>
</svg>
