<svg width="97" height="40" viewBox="0 0 97 40" fill="none" xmlns="http://www.w3.org/2000/svg">
<path fill-rule="evenodd" clip-rule="evenodd" d="M8.0266 30.3478V20.5529C8.0266 18.4751 8.51454 16.9662 9.49029 16.0263C10.466 15.0863 11.9481 14.6164 13.9365 14.6164H17.9707V17.2878H14.7649C13.4946 17.2878 12.5924 17.6241 12.0585 18.2969C11.5246 18.9697 11.2577 20.0283 11.2577 21.4728V30.3478H8.0266ZM19.9203 30.3478C17.4902 30.3478 16.275 28.7153 16.275 25.4503C16.275 23.9266 16.5787 22.7294 17.1863 21.8587C17.7938 20.9881 18.7053 20.5529 19.9203 20.5529H26.548V19.5436C26.548 18.0397 25.8668 17.2878 24.5044 17.2878H20.234V14.6164H25.6644C27.0083 14.6164 28.03 15.0419 28.7296 15.8928C29.4292 16.7437 29.7791 17.8616 29.7791 19.2467V27.6764C29.7791 29.4573 28.9506 30.3478 27.2936 30.3478H19.9203ZM32.0159 30.3478V20.5529C32.0159 18.4751 32.5038 16.9662 33.4796 16.0263C34.4553 15.0863 35.9372 14.6164 37.9255 14.6164H40.5191V17.2878H38.754C37.4837 17.2878 36.5817 17.6241 36.0478 18.2969C35.5139 18.9697 35.2468 20.0283 35.2468 21.4728V30.3478H32.0159ZM42.8186 30.3478V14.6164H46.0497V30.3478H42.8186ZM21.1628 27.6764H25.7195C26.2718 27.6764 26.548 27.3795 26.548 26.7859V23.224H21.1628C20.1318 23.224 19.6164 23.9662 19.6164 25.4503C19.6164 26.9344 20.1318 27.6764 21.1628 27.6764ZM42.8186 12.5386V9.33301H46.0497V12.5386H42.8186Z" fill="white"/>
<path fill-rule="evenodd" clip-rule="evenodd" d="M75.04 16.5234C76.3308 15.3906 78.4019 14.8242 81.2533 14.8242C84.1047 14.8242 86.1757 15.3906 87.4666 16.5234C88.7574 17.6562 89.4028 19.6818 89.4028 22.6002C89.4028 25.5569 88.7622 27.6017 87.481 28.7345C86.1998 29.8673 84.1239 30.4337 81.2533 30.4337C78.3826 30.4337 76.3067 29.8673 75.0255 28.7345C73.7443 27.6017 73.1037 25.5569 73.1037 22.6002C73.1037 19.6818 73.7491 17.6562 75.04 16.5234ZM76.6005 22.6002C76.6005 24.5009 76.9473 25.8497 77.6409 26.6465C78.3345 27.4433 79.5386 27.8417 81.2533 27.8417C82.968 27.8417 84.1721 27.4433 84.8657 26.6465C85.5592 25.8497 85.906 24.5009 85.906 22.6002C85.906 20.7186 85.5592 19.3842 84.8657 18.597C84.1721 17.8098 82.968 17.4162 81.2533 17.4162C79.5386 17.4162 78.3345 17.8098 77.6409 18.597C76.9473 19.3842 76.6005 20.7186 76.6005 22.6002ZM49.0886 30.2609V17.589C49.0886 15.861 49.9556 14.997 51.6895 14.997H64.9542C66.8423 14.997 68.3065 15.3906 69.3469 16.1778C70.3872 16.965 70.9074 18.309 70.9074 20.2098V30.2609H67.5262V21.1026C67.5262 19.9122 67.2758 19.029 66.7748 18.453C66.2739 17.877 65.4551 17.589 64.3184 17.589H61.6886V30.2609H58.3074V17.589H53.3368C52.7588 17.589 52.4698 17.877 52.4698 18.453V30.2609H49.0886Z" fill="white"/>
</svg>
