<svg width="100%" height="100%" viewBox="0 0 156 52" fill="none" xmlns="http://www.w3.org/2000/svg" id="tokene-logo">
<path d="M47.9304 20.6927V17.9158H62.1856V20.6927H56.6537V35.202H53.4622V20.6927H47.9304Z" fill="currentColor"/>
<path d="M66.0153 31.2449V26.0382C66.0153 23.4002 67.3628 22.0812 70.0578 22.0812H73.6748C76.3698 22.0812 77.7173 23.4002 77.7173 26.0382V31.2449C77.7173 33.883 76.3698 35.202 73.6748 35.202H70.0578C67.3628 35.202 66.0153 33.883 66.0153 31.2449ZM69.0649 31.5226C69.0407 31.6739 69.0533 31.8287 69.1017 31.9743C69.1502 32.1199 69.2331 32.2522 69.3438 32.3605C69.4544 32.4687 69.5895 32.5499 69.7383 32.5973C69.887 32.6448 70.0451 32.6571 70.1997 32.6334H73.533C73.6875 32.6571 73.8456 32.6448 73.9943 32.5973C74.1431 32.5499 74.2783 32.4687 74.3889 32.3605C74.4995 32.2522 74.5824 32.1199 74.6308 31.9743C74.6793 31.8287 74.6919 31.6739 74.6677 31.5226V25.7606C74.6919 25.6093 74.6793 25.4545 74.6308 25.3089C74.5824 25.1633 74.4995 25.031 74.3889 24.9227C74.2783 24.8145 74.1431 24.7333 73.9943 24.6859C73.8456 24.6384 73.6875 24.6261 73.533 24.6498H70.1997C70.0451 24.6261 69.887 24.6384 69.7383 24.6859C69.5895 24.7333 69.4544 24.8145 69.3438 24.9227C69.2331 25.031 69.1502 25.1633 69.1017 25.3089C69.0533 25.4545 69.0407 25.6093 69.0649 25.7606V31.5226Z" fill="currentColor"/>
<path d="M83.8874 35.202V16.6661H86.866V27.6349L92.1142 22.0811H95.022L95.3056 22.567L90.6248 27.5655L95.6602 34.716L95.4475 35.202H92.4688L88.6391 29.6482L86.866 31.4531V35.202H83.8874Z" fill="currentColor"/>
<path d="M100.625 31.2449V26.0382C100.625 23.4002 101.972 22.0812 104.667 22.0812H108.001C110.696 22.0812 111.972 23.4002 111.972 26.0382V29.7176H103.603V31.5226C103.603 32.2863 104.029 32.6334 104.809 32.6334H111.476V34.2301L110.128 35.202H104.667C101.972 35.202 100.625 33.883 100.625 31.2449ZM103.603 27.4267H108.993V25.7606C109.018 25.6093 109.005 25.4545 108.957 25.3089C108.908 25.1633 108.825 25.031 108.715 24.9227C108.604 24.8145 108.469 24.7333 108.32 24.6859C108.171 24.6384 108.013 24.6261 107.859 24.6498H104.809C104.029 24.6498 103.603 24.9969 103.603 25.7606V27.4267Z" fill="currentColor"/>
<path d="M118.213 35.202V22.0812H125.589C128.284 22.0812 129.561 23.4002 129.561 26.0382V35.202H126.582V25.7606C126.606 25.6093 126.594 25.4545 126.545 25.3089C126.497 25.1633 126.414 25.031 126.303 24.9227C126.192 24.8145 126.057 24.7333 125.909 24.6859C125.76 24.6384 125.602 24.6261 125.447 24.6498H121.192V35.202H118.213Z" fill="currentColor"/>
<path d="M136.156 35.202V17.9158H148V20.6927H139.277V24.858H147.291V27.6349H139.277V32.4251H148V35.202H136.156Z" fill="currentColor"/>
<path fill-rule="evenodd" clip-rule="evenodd" d="M29.9332 8L43.3684 25.9816L29.934 44L24.5673 36.8064L32.6346 25.983L24.5667 15.1934L29.9332 8ZM29.9344 11.0428L26.8388 15.1922L34.9063 25.9814L26.8381 36.8059L29.9336 40.9551L41.0969 25.9827L29.9344 11.0428Z" fill="currentColor"/>
<path fill-rule="evenodd" clip-rule="evenodd" d="M21.4733 8.00127L26.8387 15.1932L18.7708 25.9828L26.8381 36.8062L21.4725 43.9983L8 25.9814L21.4733 8.00127ZM10.2738 25.9825L21.4708 40.9563L24.5673 36.8057L16.4991 25.9812L24.5667 15.192L21.47 11.0412L10.2738 25.9825Z" fill="currentColor"/>
<path d="M33.7705 25.9822L25.7027 29.3366L17.6349 25.9822L25.7027 36.8062L33.7705 25.9822Z" fill="currentColor"/>
</svg>
